<?xml version="1.0" encoding="UTF-8"?>
<svg width="49.176" height="46.469" version="1.1" viewBox="0 0 13.011 12.295" xmlns="http://www.w3.org/2000/svg" xmlns:xlink="http://www.w3.org/1999/xlink">
<defs>
  <pattern id="pattern58" patternTransform="matrix(.26458 0 0 .26458 10.505 77.203)" xlink:href="#pattern9"/>
  <pattern id="pattern9" width="49.1755" height="46.4685" patternTransform="translate(.412 476.77)" patternUnits="userSpaceOnUse">
  <path class="logoArca" fill="#fff" d="m48.81 45.675c-2.6355-0.2905-3.416-2.5445-3.416-2.5445l-16.905-40.356s-0.9105-2.774-3.9015-2.774-3.9015 2.774-3.9015 2.774l-16.906 40.356s-0.7805 2.254-3.416 2.5445c-0.2055 0.0225-0.365 0.189-0.365 0.396 0 0.2195 0.178 0.3975 0.3975 0.3975h24.19 24.19c0.2195 0 0.3975-0.178 0.3975-0.3975 0-0.207-0.1595-0.3735-0.365-0.396zm-7.3025-0.0305c-2.682 0-5.1025-1.6075-6.1425-4.0795l-10.121-24.049c-0.249-0.592-1.088-0.592-1.337 0l-10.12 24.049c-1.04 2.472-3.461 4.0795-6.1425 4.0795h-5.2725c1.344-0.477 1.864-1.777 1.864-1.777l16.026-38.189 0.9535-2.341s1.0835-2.514 3.338-2.514 3.3375 2.601 3.3375 2.601l0.997 2.254 16.21 38.518c0.3055 0.7265 0.9385 1.264 1.7045 1.448h-5.295z" stroke-width=".05"/>
  </pattern>
</defs>
<g transform="translate(-10.505 -77.203)">
  <rect x="10.505" y="77.203" width="13.011" height="12.295" fill="url(#pattern58)"/>
</g>
</svg>
